<?xml version="1.0" standalone="no"?>
<!DOCTYPE svg PUBLIC "-//W3C//DTD SVG 20010904//EN"
 "http://www.w3.org/TR/2001/REC-SVG-20010904/DTD/svg10.dtd">
<svg version="1.0" xmlns="http://www.w3.org/2000/svg"
 width="1280.000000pt" height="425.000000pt" viewBox="0 0 1280.000000 425.000000"
 preserveAspectRatio="xMidYMid meet">
<metadata>
Created by potrace 1.15, written by Peter Selinger 2001-2017
</metadata>
<g transform="translate(0.000000,425.000000) scale(0.100000,-0.100000)"
fill="#000000" stroke="none">
<path d="M1514 4156 c-45 -20 -102 -74 -127 -120 -21 -39 -22 -55 -25 -326 -2
-198 0 -297 8 -325 19 -63 63 -118 122 -150 l53 -30 267 -3 c175 -2 287 1 323
8 72 15 131 61 167 129 l28 53 0 287 c0 172 -4 301 -11 325 -13 48 -82 123
-134 147 -36 17 -70 19 -340 18 -228 0 -307 -3 -331 -13z"/>
<path d="M2735 3541 c-69 -42 -70 -45 -73 -245 -3 -176 -2 -182 20 -216 41
-61 73 -70 245 -70 173 0 218 11 256 64 21 29 22 41 22 206 0 157 -2 178 -20
209 -37 62 -68 71 -255 71 -143 0 -169 -3 -195 -19z"/>
<path d="M244 3231 c-59 -27 -109 -75 -138 -133 l-26 -52 0 -335 c0 -307 2
-340 19 -377 28 -62 84 -119 144 -145 51 -24 57 -24 377 -24 320 0 326 0 377
24 65 29 124 91 149 157 17 44 19 78 19 364 0 285 -2 320 -19 364 -25 65 -79
124 -141 152 -49 23 -55 24 -385 24 -304 0 -339 -2 -376 -19z"/>
<path d="M8680 3118 c-95 -64 -90 -201 10 -257 164 -92 313 120 176 249 -40
36 -137 41 -186 8z"/>
<path d="M4925 2674 c-117 -19 -251 -74 -340 -138 l-50 -36 -5 49 c-6 60 -37
97 -91 111 -52 14 -107 -5 -136 -49 l-23 -34 0 -939 c0 -1027 -3 -981 58
-1012 60 -31 117 -24 158 20 l34 35 0 336 0 335 23 -16 c316 -226 688 -217
979 26 102 85 203 255 234 395 21 95 15 299 -11 383 -78 253 -285 451 -534
515 -64 16 -241 27 -296 19z m191 -265 c260 -47 439 -301 396 -562 -25 -149
-122 -287 -250 -355 -291 -155 -634 -4 -717 315 -78 299 156 603 471 612 22 0
67 -4 100 -10z"/>
<path d="M2050 2650 c-335 -89 -560 -381 -560 -724 0 -224 81 -412 243 -561
90 -84 232 -156 356 -181 100 -20 262 -15 356 10 98 26 219 93 292 160 61 57
66 65 70 111 6 64 -24 114 -80 132 -54 18 -90 7 -153 -49 -100 -87 -198 -122
-339 -121 -138 2 -261 57 -358 162 -46 49 -98 144 -113 204 l-6 27 567 0 c548
0 569 1 600 20 55 34 69 73 63 176 -17 279 -219 522 -518 624 -96 33 -315 38
-420 10z m356 -261 c124 -46 217 -129 274 -243 l31 -61 -236 -3 c-129 -1 -341
-1 -470 0 l-236 3 32 64 c61 122 194 225 332 257 81 18 197 11 273 -17z"/>
<path d="M6510 2650 c-133 -35 -233 -93 -335 -195 -103 -103 -145 -168 -188
-292 -24 -70 -31 -110 -35 -199 -6 -150 14 -247 80 -383 43 -91 62 -116 137
-191 95 -95 187 -150 321 -192 65 -20 95 -23 220 -22 128 0 154 3 222 26 105
35 198 89 270 157 55 52 61 61 65 106 6 64 -24 114 -80 132 -54 18 -90 7 -153
-49 -75 -65 -142 -97 -238 -114 -217 -38 -439 71 -531 260 -19 39 -37 83 -41
99 l-6 27 566 0 c626 0 605 -2 645 63 26 42 28 140 6 235 -33 138 -134 293
-253 388 -75 59 -219 128 -309 148 -100 22 -268 20 -363 -4z m352 -259 c75
-26 157 -81 209 -139 39 -45 105 -159 96 -168 -2 -2 -214 -3 -470 -2 l-466 3
31 64 c58 120 192 225 331 257 79 17 193 11 269 -15z"/>
<path d="M7745 2659 c-17 -5 -44 -22 -60 -39 l-30 -31 0 -665 0 -666 37 -34
c33 -29 45 -34 88 -34 43 0 55 5 88 34 l37 34 5 459 5 458 26 55 c56 121 136
165 331 185 74 8 119 38 137 92 13 35 13 46 0 79 -23 60 -67 84 -153 84 -96 0
-185 -23 -273 -69 l-74 -39 -9 22 c-10 27 -65 76 -85 76 -7 0 -19 2 -27 4 -7
2 -27 0 -43 -5z"/>
<path d="M8741 2662 c-14 -2 -35 -11 -48 -19 -54 -36 -53 -20 -53 -720 0 -632
1 -649 20 -681 44 -71 138 -79 200 -17 l35 35 3 648 c2 602 1 649 -15 681 -29
56 -83 84 -142 73z"/>
<path d="M9668 2655 c-265 -65 -466 -257 -549 -525 -31 -98 -33 -299 -6 -400
72 -259 257 -450 517 -532 65 -20 95 -23 220 -23 132 1 152 3 225 29 87 30
186 82 234 122 l31 26 0 -40 c0 -79 76 -143 154 -128 44 8 91 54 100 97 3 17
6 311 6 653 0 571 -1 624 -18 655 -24 48 -63 74 -109 74 -77 0 -133 -56 -133
-132 0 -17 -2 -31 -5 -31 -3 0 -26 15 -52 34 -73 51 -167 95 -251 117 -90 23
-276 25 -364 4z m268 -246 c134 -24 279 -129 342 -247 178 -334 -59 -732 -436
-732 -172 0 -349 106 -430 258 -195 367 116 796 524 721z"/>
<path d="M10931 2662 c-14 -2 -35 -11 -48 -19 -54 -36 -53 -20 -53 -720 0
-498 3 -654 13 -673 17 -33 74 -70 109 -70 37 0 81 23 107 56 20 26 21 37 21
418 0 215 5 424 10 464 18 135 74 218 182 268 57 26 73 29 173 29 101 0 115
-2 173 -29 81 -38 171 -131 203 -213 23 -57 23 -68 29 -488 6 -471 4 -460 66
-490 43 -20 83 -19 121 5 66 40 64 19 61 531 -3 439 -4 467 -24 520 -65 180
-216 326 -404 390 -48 16 -96 23 -185 27 -143 5 -212 -9 -325 -66 l-76 -38
-14 30 c-25 51 -82 79 -139 68z"/>
<path d="M3094 2616 c-30 -30 -34 -41 -34 -84 0 -47 9 -63 179 -331 l179 -282
-179 -281 c-170 -267 -179 -284 -179 -331 0 -42 5 -54 34 -83 30 -30 40 -34
89 -34 44 0 62 5 82 23 14 12 90 121 169 241 l144 220 84 -130 c47 -71 114
-175 150 -231 37 -56 75 -106 87 -112 11 -6 45 -11 76 -11 50 0 60 4 85 30 30
32 45 87 34 123 -4 12 -85 145 -180 295 -96 150 -174 277 -174 282 0 4 77 129
171 277 94 147 176 281 182 296 14 41 -6 99 -45 132 -28 24 -39 27 -90 23 -37
-3 -64 -11 -77 -22 -11 -10 -75 -105 -142 -210 -67 -105 -132 -206 -144 -223
l-22 -33 -139 221 c-76 122 -151 232 -167 245 -23 19 -40 24 -84 24 -49 0 -59
-4 -89 -34z"/>
<path d="M429 1727 c-27 -15 -52 -38 -66 -63 -21 -37 -23 -50 -23 -242 0 -224
5 -249 59 -295 50 -42 96 -49 301 -45 183 3 187 4 227 30 65 43 77 80 81 251
7 256 -8 316 -93 364 -38 21 -51 23 -241 23 -191 0 -203 -1 -245 -23z"/>
<path d="M12270 1435 c0 -21 5 -25 30 -25 l30 0 0 -99 c0 -112 4 -131 30 -131
26 0 30 19 30 131 l0 99 30 0 c25 0 30 4 30 25 0 25 -1 25 -90 25 -89 0 -90 0
-90 -25z"/>
<path d="M12476 1444 c-3 -9 -6 -64 -6 -124 0 -122 4 -140 31 -140 20 0 27 19
31 90 l3 45 19 -55 c36 -105 54 -106 87 -2 l24 77 5 -75 c4 -67 7 -75 25 -75
19 0 20 7 20 135 l0 135 -29 0 c-27 0 -31 -5 -53 -70 -13 -38 -26 -77 -29 -85
-4 -9 -15 10 -29 51 -12 36 -28 76 -34 87 -14 26 -56 30 -65 6z"/>
<path d="M1215 851 c-48 -22 -79 -54 -100 -103 -12 -30 -15 -83 -15 -276 0
-227 1 -240 23 -282 13 -26 40 -57 65 -75 l44 -30 263 0 263 0 43 30 c23 17
53 50 66 74 22 43 23 52 23 283 0 255 -5 284 -53 337 -51 55 -81 61 -342 61
-212 0 -245 -3 -280 -19z"/>
</g>
</svg>
